<svg id="Capa_1" enable-background="new 0 0 512 512" height="512" viewBox="0 0 512 512" width="512" xmlns="http://www.w3.org/2000/svg"><g id="svgg"><path id="path0" d="M20.428 346.319 C 18.317 347.367,17.663 348.857,17.629 352.700 C 17.612 354.699,17.761 356.000,18.009 356.000 C 18.233 356.000,18.604 356.411,18.833 356.913 C 19.741 358.905,9.944 358.809,200.704 358.701 L 379.954 358.600 380.777 357.717 C 381.230 357.231,381.600 356.635,381.600 356.393 C 381.600 356.151,381.780 356.064,382.000 356.200 C 382.226 356.340,382.400 356.012,382.400 355.447 C 382.400 354.897,382.597 354.325,382.838 354.176 C 383.086 354.023,383.183 353.362,383.061 352.653 C 381.823 345.445,382.233 345.600,364.437 345.600 C 352.535 345.600,350.425 345.688,350.000 346.200 C 349.584 346.701,348.002 346.800,340.394 346.800 C 332.667 346.800,331.251 346.709,331.055 346.200 C 330.713 345.308,294.604 345.320,293.424 346.213 C 292.267 347.088,275.934 347.076,275.057 346.200 C 274.541 345.684,271.904 345.600,256.278 345.600 C 240.606 345.600,238.029 345.683,237.600 346.200 C 237.185 346.700,235.625 346.800,228.200 346.800 C 220.775 346.800,219.215 346.700,218.800 346.200 C 218.371 345.683,215.794 345.600,200.122 345.600 C 184.496 345.600,181.859 345.684,181.343 346.200 C 180.467 347.076,163.783 347.064,162.624 346.187 C 161.442 345.293,125.200 345.306,125.200 346.200 C 125.200 346.716,123.930 346.800,116.171 346.800 C 108.679 346.800,107.041 346.698,106.543 346.200 C 105.653 345.310,70.201 345.322,69.024 346.213 C 67.867 347.088,51.534 347.076,50.657 346.200 C 49.699 345.242,22.383 345.349,20.428 346.319 " stroke="none" fill="#e3dbdc" fill-rule="evenodd"></path><path id="path1" d="M337.300 46.888 C 336.805 47.127,336.400 47.475,336.400 47.661 C 336.400 47.848,336.151 48.000,335.846 48.000 C 335.541 48.000,334.987 48.466,334.614 49.035 C 334.241 49.604,332.158 51.854,329.984 54.035 C 327.811 56.216,326.084 58.000,326.146 58.000 C 326.208 58.000,324.985 59.326,323.429 60.946 C 315.012 69.712,310.144 74.847,308.283 76.925 C 307.137 78.204,303.644 81.849,300.520 85.025 C 297.395 88.201,294.892 90.800,294.956 90.800 C 295.212 90.800,291.888 94.329,285.909 100.406 L 279.618 106.800 277.609 106.800 C 276.504 106.800,275.600 106.980,275.600 107.200 C 275.600 107.420,274.700 107.600,273.600 107.600 C 272.500 107.600,271.600 107.753,271.600 107.940 C 271.600 108.127,270.025 108.395,268.100 108.536 C 266.175 108.677,264.150 108.894,263.600 109.018 C 261.536 109.486,258.123 110.037,255.894 110.263 C 254.625 110.392,253.489 110.655,253.370 110.849 C 253.251 111.042,252.173 111.200,250.976 111.200 C 249.779 111.200,248.800 111.363,248.800 111.563 C 248.800 111.902,247.774 112.062,241.900 112.644 C 240.635 112.769,239.600 113.035,239.600 113.236 C 239.600 113.436,238.621 113.600,237.424 113.600 C 236.227 113.600,235.136 113.780,235.000 114.000 C 234.864 114.220,233.964 114.400,233.000 114.400 C 232.036 114.400,231.136 114.580,231.000 114.800 C 230.864 115.020,229.784 115.200,228.600 115.200 C 227.416 115.200,226.336 115.380,226.200 115.600 C 226.064 115.820,225.583 116.000,225.130 116.000 C 224.250 116.000,221.600 118.611,221.600 119.478 C 221.600 119.765,221.420 120.000,221.200 120.000 C 220.980 120.000,220.800 120.320,220.800 120.712 C 220.800 121.103,220.440 121.683,220.000 122.000 C 219.560 122.317,219.200 122.857,219.200 123.200 C 219.200 123.543,218.840 124.083,218.400 124.400 C 217.960 124.717,217.600 125.207,217.600 125.488 C 217.600 125.770,217.450 126.000,217.268 126.000 C 217.085 126.000,216.680 126.495,216.368 127.100 C 216.055 127.705,215.485 128.549,215.100 128.975 C 214.715 129.402,214.400 129.987,214.400 130.275 C 214.400 130.564,214.242 130.800,214.049 130.800 C 213.855 130.800,213.473 131.340,213.200 132.000 C 212.927 132.660,212.545 133.200,212.351 133.200 C 212.158 133.200,212.000 133.470,212.000 133.800 C 212.000 134.130,211.820 134.400,211.600 134.400 C 211.380 134.400,211.200 134.582,211.200 134.804 C 211.200 135.026,210.570 136.105,209.800 137.200 C 209.030 138.295,208.400 139.464,208.400 139.796 C 208.400 140.128,208.220 140.400,208.000 140.400 C 207.780 140.400,207.600 140.670,207.600 141.000 C 207.600 141.330,207.450 141.600,207.268 141.600 C 207.085 141.600,206.680 142.095,206.368 142.700 C 206.055 143.305,205.485 144.149,205.100 144.575 C 204.715 145.002,204.400 145.587,204.400 145.875 C 204.400 146.164,204.250 146.400,204.068 146.400 C 203.885 146.400,203.480 146.895,203.168 147.500 C 202.855 148.105,202.285 148.949,201.900 149.375 C 201.515 149.802,201.200 150.387,201.200 150.675 C 201.200 150.964,201.050 151.200,200.868 151.200 C 200.685 151.200,200.281 151.695,199.970 152.300 C 199.660 152.905,199.089 153.691,198.703 154.047 C 198.316 154.403,198.000 154.988,198.000 155.347 C 198.000 155.706,197.850 156.000,197.668 156.000 C 197.485 156.000,197.080 156.495,196.768 157.100 C 196.456 157.705,196.097 158.290,195.971 158.400 C 195.397 158.897,192.483 163.492,192.229 164.300 C 192.074 164.795,191.778 165.200,191.573 165.200 C 191.368 165.200,191.200 165.520,191.200 165.912 C 191.200 166.303,190.840 166.883,190.400 167.200 C 189.960 167.517,189.600 168.057,189.600 168.400 C 189.600 168.743,189.240 169.283,188.800 169.600 C 188.360 169.917,188.000 170.457,188.000 170.800 C 188.000 171.143,187.640 171.683,187.200 172.000 C 186.760 172.317,186.400 172.857,186.400 173.200 C 186.400 173.543,186.040 174.083,185.600 174.400 C 185.160 174.717,184.800 175.207,184.800 175.488 C 184.800 175.770,184.620 176.000,184.400 176.000 C 184.180 176.000,184.000 176.270,184.000 176.600 C 184.000 176.930,183.820 177.200,183.600 177.200 C 183.380 177.200,183.200 177.448,183.200 177.751 C 183.200 178.054,182.927 178.529,182.593 178.806 C 182.259 179.083,181.710 179.891,181.373 180.601 C 181.036 181.311,180.454 182.240,180.080 182.666 C 179.455 183.378,179.037 184.033,177.838 186.185 C 177.597 186.616,177.154 187.235,176.853 187.560 C 176.552 187.886,176.129 188.657,175.914 189.276 C 175.698 189.894,175.359 190.400,175.161 190.400 C 174.962 190.400,174.800 190.720,174.800 191.112 C 174.800 191.503,174.440 192.083,174.000 192.400 C 173.560 192.717,173.200 193.207,173.200 193.488 C 173.200 193.770,173.020 194.000,172.800 194.000 C 172.580 194.000,172.400 194.281,172.400 194.624 C 172.400 194.967,172.220 195.136,172.000 195.000 C 171.780 194.864,171.600 195.084,171.600 195.488 C 171.600 195.893,171.240 196.483,170.800 196.800 C 170.360 197.117,170.000 197.615,170.000 197.906 C 170.000 198.805,168.092 200.400,167.018 200.400 C 166.458 200.400,166.000 200.220,166.000 200.000 C 166.000 199.778,164.933 199.600,163.600 199.600 C 162.267 199.600,161.200 199.422,161.200 199.200 C 161.200 198.978,160.141 198.800,158.824 198.800 C 157.517 198.800,156.336 198.620,156.200 198.400 C 156.064 198.180,154.883 198.000,153.576 198.000 C 152.259 198.000,151.200 197.822,151.200 197.600 C 151.200 197.378,150.133 197.200,148.800 197.200 C 147.467 197.200,146.400 197.022,146.400 196.800 C 146.400 196.578,145.341 196.400,144.024 196.400 C 142.717 196.400,141.536 196.220,141.400 196.000 C 141.264 195.780,140.299 195.600,139.256 195.600 C 138.213 195.600,137.189 195.436,136.980 195.235 C 136.771 195.035,135.610 194.775,134.400 194.659 C 133.190 194.542,131.030 194.255,129.600 194.021 C 128.170 193.786,126.010 193.434,124.800 193.238 C 123.590 193.043,122.060 192.758,121.400 192.606 C 115.870 191.333,112.218 192.214,108.636 195.685 C 107.776 196.518,106.907 197.200,106.705 197.200 C 106.503 197.200,105.646 197.920,104.800 198.800 C 103.954 199.680,103.064 200.400,102.821 200.400 C 102.578 200.400,101.569 201.210,100.579 202.200 C 99.589 203.190,98.641 204.000,98.473 204.000 C 98.304 204.000,97.499 204.630,96.682 205.400 C 95.866 206.170,95.111 206.800,95.004 206.800 C 94.734 206.800,93.285 207.985,91.947 209.300 C 91.331 209.905,90.685 210.400,90.511 210.400 C 90.338 210.400,89.431 211.120,88.497 212.000 C 87.563 212.880,86.640 213.600,86.447 213.600 C 86.254 213.600,85.355 214.320,84.448 215.200 C 83.541 216.080,82.619 216.800,82.400 216.800 C 82.180 216.800,82.000 216.980,82.000 217.200 C 82.000 217.420,81.823 217.600,81.607 217.600 C 81.219 217.600,79.606 218.981,76.122 222.300 C 75.140 223.235,74.159 224.000,73.942 224.000 C 73.724 224.000,72.884 224.630,72.073 225.399 C 71.263 226.169,70.285 226.901,69.900 227.026 C 69.515 227.151,69.200 227.452,69.200 227.694 C 69.200 227.935,69.099 228.032,68.975 227.908 C 68.851 227.784,68.055 228.384,67.206 229.241 C 66.357 230.099,65.513 230.800,65.329 230.800 C 65.146 230.800,64.231 231.520,63.297 232.400 C 62.363 233.280,61.495 234.000,61.368 234.000 C 61.241 234.000,60.446 234.720,59.600 235.600 C 58.754 236.480,57.864 237.200,57.621 237.200 C 56.951 237.200,53.600 240.692,53.600 241.389 C 53.600 241.725,53.420 242.000,53.200 242.000 C 52.624 242.000,52.705 246.643,53.300 247.697 C 54.111 249.135,56.269 251.200,56.960 251.200 C 57.312 251.200,57.600 251.380,57.600 251.600 C 57.600 251.820,58.590 252.000,59.800 252.000 C 61.010 252.000,62.000 251.820,62.000 251.600 C 62.000 251.380,62.360 251.200,62.800 251.200 C 63.240 251.200,63.600 251.020,63.600 250.800 C 63.600 250.580,63.884 250.400,64.231 250.400 C 64.579 250.400,65.554 249.680,66.400 248.800 C 67.246 247.920,68.110 247.200,68.320 247.200 C 68.531 247.200,69.400 246.524,70.252 245.698 C 71.103 244.872,72.408 243.763,73.152 243.234 C 73.895 242.705,75.027 241.761,75.666 241.136 C 76.305 240.511,76.995 240.000,77.200 240.000 C 77.406 240.000,78.203 239.370,78.973 238.600 C 79.743 237.830,80.527 237.200,80.716 237.200 C 80.904 237.200,82.022 236.300,83.200 235.200 C 84.378 234.100,85.504 233.200,85.702 233.200 C 85.900 233.200,86.754 232.480,87.600 231.600 C 88.446 230.720,89.269 230.000,89.431 230.000 C 89.592 230.000,90.409 229.280,91.246 228.400 C 92.083 227.520,92.963 226.800,93.202 226.800 C 93.441 226.800,94.053 226.395,94.563 225.900 C 95.073 225.405,95.903 224.730,96.408 224.400 C 97.266 223.839,99.953 221.673,100.400 221.181 C 100.510 221.060,101.230 220.527,102.000 219.996 C
 102.770 219.465,103.877 218.529,104.460 217.915 C 105.044 217.302,105.719 216.800,105.960 216.800 C 106.202 216.800,106.400 216.650,106.400 216.468 C 106.400 216.285,106.847 215.896,107.393 215.604 C 107.940 215.311,108.492 214.741,108.620 214.336 C 108.749 213.931,109.126 213.600,109.458 213.600 C 109.791 213.600,110.754 212.880,111.600 212.000 C 112.446 211.120,113.286 210.400,113.469 210.400 C 113.805 210.399,115.447 209.133,117.127 207.577 C 117.962 206.803,118.226 206.762,119.804 207.159 C 120.767 207.402,122.165 207.600,122.910 207.600 C 123.656 207.600,124.392 207.725,124.545 207.878 C 124.908 208.241,125.448 208.315,130.100 208.641 C 132.245 208.791,134.000 209.069,134.000 209.257 C 134.000 209.446,135.080 209.600,136.400 209.600 C 137.733 209.600,138.800 209.778,138.800 210.000 C 138.800 210.222,139.867 210.400,141.200 210.400 C 142.533 210.400,143.600 210.578,143.600 210.800 C 143.600 211.020,144.579 211.200,145.776 211.200 C 146.973 211.200,148.064 211.380,148.200 211.600 C 148.336 211.820,149.416 212.000,150.600 212.000 C 151.784 212.000,152.864 212.180,153.000 212.400 C 153.136 212.620,154.306 212.800,155.600 212.800 C 156.894 212.800,158.064 212.980,158.200 213.200 C 158.336 213.420,159.427 213.600,160.624 213.600 C 161.821 213.600,162.800 213.780,162.800 214.000 C 162.800 214.222,163.867 214.400,165.200 214.400 C 166.533 214.400,167.600 214.578,167.600 214.800 C 167.600 215.039,169.133 215.200,171.400 215.200 C 173.667 215.200,175.200 215.039,175.200 214.800 C 175.200 214.580,175.483 214.400,175.829 214.400 C 176.600 214.400,177.600 213.449,177.600 212.717 C 177.600 212.420,177.960 211.917,178.400 211.600 C 178.840 211.283,179.200 210.743,179.200 210.400 C 179.200 210.057,179.560 209.517,180.000 209.200 C 180.440 208.883,180.800 208.393,180.800 208.112 C 180.800 207.830,180.950 207.600,181.132 207.600 C 181.315 207.600,181.720 207.105,182.032 206.500 C 182.345 205.895,182.915 205.051,183.300 204.625 C 183.685 204.198,184.000 203.613,184.000 203.325 C 184.000 203.036,184.150 202.800,184.332 202.800 C 184.515 202.800,184.920 202.305,185.232 201.700 C 185.545 201.095,186.115 200.251,186.500 199.825 C 186.885 199.398,187.200 198.813,187.200 198.525 C 187.200 198.236,187.358 198.000,187.551 198.000 C 187.745 198.000,188.127 197.460,188.400 196.800 C 188.673 196.140,189.055 195.600,189.249 195.600 C 189.442 195.600,189.600 195.364,189.600 195.075 C 189.600 194.787,189.953 194.172,190.384 193.710 C 190.815 193.247,191.284 192.403,191.427 191.834 C 191.570 191.265,191.847 190.800,192.043 190.800 C 192.240 190.800,192.400 190.570,192.400 190.288 C 192.400 190.007,192.760 189.517,193.200 189.200 C 193.640 188.883,194.000 188.343,194.000 188.000 C 194.000 187.657,194.360 187.117,194.800 186.800 C 195.240 186.483,195.600 185.943,195.600 185.600 C 195.600 185.257,195.960 184.717,196.400 184.400 C 196.840 184.083,197.200 183.543,197.200 183.200 C 197.200 182.857,197.560 182.317,198.000 182.000 C 198.440 181.683,198.800 181.143,198.800 180.800 C 198.800 180.457,199.160 179.917,199.600 179.600 C 200.040 179.283,200.400 178.703,200.400 178.312 C 200.400 177.920,200.550 177.600,200.732 177.600 C 200.915 177.600,201.320 177.105,201.632 176.500 C 201.945 175.895,202.486 175.082,202.836 174.693 C 203.186 174.305,203.726 173.495,204.036 172.893 C 204.346 172.292,204.915 171.451,205.300 171.025 C 205.685 170.598,206.000 170.013,206.000 169.725 C 206.000 169.436,206.150 169.200,206.332 169.200 C 206.515 169.200,206.920 168.705,207.232 168.100 C 207.545 167.495,208.025 166.762,208.300 166.471 C 208.575 166.181,208.800 165.635,208.800 165.260 C 208.800 164.884,209.160 164.317,209.600 164.000 C 210.040 163.683,210.400 163.143,210.400 162.800 C 210.400 162.457,210.760 161.917,211.200 161.600 C 211.640 161.283,212.000 160.743,212.000 160.400 C 212.000 160.057,212.360 159.517,212.800 159.200 C 213.240 158.883,213.600 158.393,213.600 158.112 C 213.600 157.830,213.780 157.600,214.000 157.600 C 214.220 157.600,214.400 157.330,214.400 157.000 C 214.400 156.670,214.580 156.400,214.800 156.400 C 215.020 156.400,215.200 156.164,215.200 155.875 C 215.200 155.587,215.560 154.964,216.000 154.492 C 216.440 154.020,216.800 153.446,216.800 153.217 C 216.800 152.988,216.980 152.800,217.200 152.800 C 217.420 152.800,217.600 152.564,217.600 152.275 C 217.600 151.987,217.915 151.402,218.300 150.975 C 218.685 150.549,219.255 149.705,219.568 149.100 C 219.880 148.495,220.285 148.000,220.468 148.000 C 220.650 148.000,220.800 147.680,220.800 147.288 C 220.800 146.897,221.160 146.317,221.600 146.000 C 222.040 145.683,222.400 145.186,222.400 144.895 C 222.400 144.604,222.760 143.980,223.200 143.508 C 223.640 143.036,224.000 142.413,224.000 142.125 C 224.000 141.836,224.168 141.600,224.373 141.600 C 224.578 141.600,224.870 141.209,225.022 140.731 C 225.174 140.253,225.636 139.499,226.049 139.055 C 226.462 138.612,226.800 138.053,226.800 137.813 C 226.800 137.573,227.160 137.117,227.600 136.800 C 228.040 136.483,228.400 135.903,228.400 135.512 C 228.400 135.120,228.550 134.800,228.732 134.800 C 228.915 134.800,229.320 134.305,229.632 133.700 C 229.945 133.095,230.515 132.251,230.900 131.825 C 231.285 131.398,231.600 130.890,231.600 130.696 C 231.600 130.122,232.692 129.200,233.371 129.200 C 233.717 129.200,234.000 129.020,234.000 128.800 C 234.000 128.580,234.889 128.400,235.976 128.400 C 237.063 128.400,238.064 128.220,238.200 128.000 C 238.336 127.780,239.337 127.600,240.424 127.600 C 241.511 127.600,242.400 127.420,242.400 127.200 C 242.400 126.978,243.467 126.800,244.800 126.800 C 246.133 126.800,247.200 126.622,247.200 126.400 C 247.200 126.178,248.267 126.000,249.600 126.000 C 250.920 126.000,252.000 125.842,252.000 125.648 C 252.000 125.454,253.890 125.167,256.200 125.009 C 258.510 124.852,260.400 124.560,260.400 124.362 C 260.400 124.163,261.379 124.000,262.576 124.000 C 263.773 124.000,264.864 123.820,265.000 123.600 C 265.136 123.380,266.216 123.200,267.400 123.200 C 268.584 123.200,269.664 123.020,269.800 122.800 C 269.936 122.580,270.901 122.400,271.944 122.400 C 272.987 122.400,274.011 122.237,274.220 122.037 C 274.572 121.700,275.354 121.577,281.100 120.954 C 282.255 120.828,283.200 120.563,283.200 120.363 C 283.200 120.163,284.100 120.000,285.200 120.000 C 286.300 120.000,287.200 119.820,287.200 119.600 C 287.200 119.380,287.515 119.192,287.900 119.182 C 288.285 119.171,289.230 118.444,290.000 117.565 C 290.770 116.686,293.110 114.184,295.200 112.004 C 297.290 109.825,301.160 105.767,303.800 102.988 C 306.440 100.208,309.725 96.758,311.100 95.320 C 312.475 93.883,313.600 92.458,313.600 92.154 C 313.600 91.849,313.777 91.600,313.994 91.600 C 314.659 91.600,326.800 79.114,326.800 78.430 C 326.800 78.246,327.475 77.445,328.300 76.648 C 336.450 68.780,339.133 65.986,340.816 63.613 C 342.043 61.884,345.525 58.400,346.027 58.400 C 346.232 58.400,346.400 58.040,346.400 57.600 C 346.400 57.160,346.580 56.800,346.800 56.800 C 347.033 56.800,347.200 55.467,347.200 53.600 C 347.200 51.733,347.033 50.400,346.800 50.400 C 346.580 50.400,346.400 50.122,346.400 49.782 C 346.400 48.982,344.618 47.200,343.818 47.200 C 343.478 47.200,343.200 47.020,343.200 46.800 C 343.200 46.264,338.446 46.335,337.300 46.888 " stroke="none" fill="#3cc38c" fill-rule="evenodd"></path><path id="path2" d="M274.800 246.193 L 274.800 346.000 284.401 346.000 L 294.002 346.000 293.901 246.300 L 293.800 146.600 284.300 146.493 L 274.800 146.386 274.800 246.193 M162.000 290.557 C 162.000 340.302,162.060 345.537,162.633 345.757 C 162.981 345.891,167.391 346.000,172.433 346.000 L 181.600 346.000 181.600 290.800 L 181.600 235.600 171.800 235.600 L 162.000 235.600 162.000 290.557 M50.400 307.207 L 50.400 346.014 59.900 345.907 L 69.400 345.800 69.502 307.834 C 69.596 272.932,69.550 269.808,68.940 269.134 C 68.334 268.464,67.499 268.400,59.338 268.400 L 50.400 268.400 50.400 307.207 M111.500 346.299 C 113.975 346.369,118.025 346.369,120.500 346.299 C 122.975 346.228,120.950 346.171,116.000 346.171 C 111.050 346.171,109.025 346.228,111.500 346.299 M223.900 346.299 C 226.375 346.369,230.425 346.369,232.900 346.299 C 235.375 346.228,233.350 346.171,228.400 346.171 C 223.450 346.171,221.425 346.228,223.900 346.299 M335.900 346.299 C 338.375 346.369,342.425 346.369,344.900 346.299 C 347.375 346.228,345.350 346.171,340.400 346.171 C 335.450 346.171,333.425 346.228,335.900 346.299 " stroke="none" fill="#84b4fc" fill-rule="evenodd"></path><path id="path3" d="M330.899 223.100 L 331.000 345.800 339.800 345.913 C 344.640 345.975,349.005 345.927,349.500 345.805 L 350.400 345.585 350.400 222.992 L 350.400 100.400 340.599 100.400 L 330.799 100.400 330.899 223.100 M218.499 257.900 L 218.600 345.800 228.200 345.800 L 237.800 345.800 237.901 257.900 L 238.002 170.000 228.200 170.000 L 218.398 170.000 218.499 257.900 M106.500 231.865 C 105.648 232.209,105.780 345.430,106.633 345.757 C 106.981 345.891,111.301 346.000,116.233 346.000 L 125.200 346.000 125.200 288.800 L 125.200 231.600 116.100 231.632 C 111.095 231.649,106.775 231.754,106.500 231.865 M68.938 269.131 C 69.543 269.800,69.608 273.148,69.698 307.831 L 69.796 345.800 69.905 308.000 C 70.015 269.969,69.966 268.400,68.670 268.400 C 68.453 268.400,68.574 268.729,68.938 269.131 " stroke="none" fill="#4484ec" fill-rule="evenodd"></path><path id="path4" d="M59.800 345.989 C 48.238 346.243,48.345 346.800,59.956 346.800 C 66.627 346.800,68.399 346.685,69.024 346.213 C 69.451 345.890,69.710 345.660,69.600 345.702 C 69.490 345.744,65.080 345.873,59.800 345.989 M162.600 346.133 C 163.531 346.880,180.091 347.117,181.200 346.400 C 181.597 346.143,178.664 346.010,172.533 346.006 C 167.436 346.003,162.936 345.886,162.533 345.746 C 161.889 345.523,161.897 345.570,162.600 346.133 M349.509 346.027 C 349.085 346.274,345.415 346.385,340.008 346.315 C 335.163 346.252,331.199 346.335,331.200 346.500 C 331.200 347.139,349.463 346.847,350.000 346.200 C 350.577 345.505,350.470 345.467,349.509 346.027 M106.800 346.500 C 106.800 346.665,110.940 346.800,116.000 346.8  
 00 C 121.060 346.800,125.200 346.665,125.200 346.500 C 125.200 346.335,121.060 346.200,116.000 346.200 C 110.940 346.200,106.800 346.335,106.800 346.500 M219.062 346.500 C 219.164 346.665,223.276 346.800,228.200 346.800 C 233.124 346.800,237.236 346.665,237.338 346.500 C 237.440 346.335,233.327 346.200,228.200 346.200 C 223.072 346.200,218.960 346.335,219.062 346.500 M275.200 346.400 C 275.539 346.619,279.456 346.788,284.200 346.788 C 288.944 346.788,292.861 346.619,293.200 346.400 C 293.596 346.144,290.544 346.012,284.200 346.012 C 277.856 346.012,274.804 346.144,275.200 346.400 " stroke="none" fill="#bcc8e4" fill-rule="evenodd"></path></g></svg>